name C:\Users\u0101727\Documents\MyRepositories\upper-imu-dc\Results\main_tracking\Case_47\FLX03_linearAccelerations_groundFrame.mot
datacolumns 4
datarows 70
range 5.38000000 6.07000000
endheader 
time	radius_imu_x	radius_imu_y	radius_imu_z	
          5.38000000	         -0.89909964	          9.47294926	          0.10479331	
          5.39000000	         -0.88479467	          9.50793391	          0.02914361	
          5.40000000	         -0.86446588	          9.53445214	         -0.05553213	
          5.41000000	         -0.83834977	          9.55357581	         -0.14941023	
          5.42000000	         -0.80650484	          9.56699281	         -0.25273186	
          5.43000000	         -0.76881736	          9.57682748	         -0.36568071	
          5.44000000	         -0.72510124	          9.58541073	         -0.48818017	
          5.45000000	         -0.67526107	          9.59503002	         -0.61965378	
          5.46000000	         -0.61946821	          9.60767699	         -0.75879857	
          5.47000000	         -0.55830277	          9.62482293	         -0.90342741	
          5.48000000	         -0.49282453	          9.64727072	         -1.05043841	
          5.49000000	         -0.42455239	          9.67512044	         -1.19595523	
          5.50000000	         -0.35535141	          9.70784431	         -1.33565228	
          5.51000000	         -0.28723934	          9.74442441	         -1.46525011	
          5.52000000	         -0.22214971	          9.78349596	         -1.58110575	
          5.53000000	         -0.16173778	          9.82346976	         -1.68070793	
          5.54000000	         -0.10731649	          9.86263257	         -1.76285980	
          5.55000000	         -0.05991695	          9.89923425	         -1.82749826	
          5.56000000	         -0.02036510	          9.93160231	         -1.87532110	
          5.57000000	          0.01073882	          9.95834712	         -1.90746330	
          5.58000000	          0.03316584	          9.97867431	         -1.92536006	
          5.59000000	          0.04726060	          9.99272608	         -1.93075529	
          5.60000000	          0.05406689	         10.00179344	         -1.92568000	
          5.61000000	          0.05524134	         10.00823673	         -1.91224129	
          5.62000000	          0.05273072	         10.01504798	         -1.89222491	
          5.63000000	          0.04833421	         10.02517636	         -1.86668319	
          5.64000000	          0.04333054	         10.04087753	         -1.83572166	
          5.65000000	          0.03830055	         10.06331656	         -1.79860048	
          5.66000000	          0.03316470	         10.09250633	         -1.75412361	
          5.67000000	          0.02739146	         10.12753207	         -1.70117091	
          5.68000000	          0.02030229	         10.16693259	         -1.63921269	
          5.69000000	          0.01138842	         10.20911202	         -1.56865426	
          5.70000000	          0.00055795	         10.25268102	         -1.49089973	
          5.71000000	         -0.01175572	         10.29665381	         -1.40813500	
          5.72000000	         -0.02464958	         10.34047193	         -1.32294380	
          5.73000000	         -0.03693378	         10.38388556	         -1.23788320	
          5.74000000	         -0.04738143	         10.42672892	         -1.15517237	
          5.75000000	         -0.05497219	         10.46866242	         -1.07656199	
          5.76000000	         -0.05905150	         10.50899833	         -1.00336976	
          5.77000000	         -0.05936314	         10.54670435	         -0.93662197	
          5.78000000	         -0.05597590	         10.58059799	         -0.87719389	
          5.79000000	         -0.04917254	         10.60965291	         -0.82583379	
          5.80000000	         -0.03937068	         10.63328971	         -0.78301210	
          5.81000000	         -0.02710197	         10.65154361	         -0.74864263	
          5.82000000	         -0.01301968	         10.66507085	         -0.72181200	
          5.83000000	          0.00211556	         10.67501608	         -0.70066009	
          5.84000000	          0.01748989	         10.68278384	         -0.68249391	
          5.85000000	          0.03230367	         10.68976101	         -0.66413386	
          5.86000000	          0.04581621	         10.69705036	         -0.64242222	
          5.87000000	          0.05737087	         10.70529224	         -0.61472934	
          5.88000000	          0.06642708	         10.71463623	         -0.57927665	
          5.89000000	          0.07262102	         10.72486511	         -0.53517185	
          5.90000000	          0.07584059	         10.73560665	         -0.48221818	
          5.91000000	          0.07627495	         10.74653445	         -0.42067834	
          5.92000000	          0.07441733	         10.75747605	         -0.35115380	
          5.93000000	          0.07101831	         10.76840293	         -0.27462869	
          5.94000000	          0.06700163	         10.77933667	         -0.19258761	
          5.95000000	          0.06335133	         10.79021543	         -0.10711017	
          5.96000000	          0.06095134	         10.80075759	         -0.02085860	
          5.97000000	          0.06037790	         10.81032913	          0.06304682	
          5.98000000	          0.06167416	         10.81783168	          0.14122793	
          5.99000000	          0.06418703	         10.82164885	          0.21025563	
          6.00000000	          0.06650021	         10.81968957	          0.26685195	
          6.01000000	          0.06657027	         10.80959087	          0.30806114	
          6.02000000	          0.06186032	         10.78907060	          0.33161956	
          6.03000000	          0.05015067	         10.75656100	          0.33599598	
          6.04000000	          0.02957508	         10.71168951	          0.32114767	
          6.05000000	          0.00069863	         10.65605377	          0.28746072	
          6.06000000	         -0.03444607	         10.59286558	          0.23668823	
          6.07000000	         -0.07208885	         10.52664391	          0.17090772	
